<svg width="40" height="40" viewBox="0 0 40 40" fill="none" xmlns="http://www.w3.org/2000/svg">
<path d="M16.6667 3.33334C15.6667 3.33334 15 4.00001 15 5.00001V35C15 36 15.6667 36.6667 16.6667 36.6667C17.6667 36.6667 18.3333 36 18.3333 35V5.00001C18.3333 4.00001 17.6667 3.33334 16.6667 3.33334ZM8.33333 20C7.33333 20 6.66666 20.6667 6.66666 21.6667V35C6.66666 36 7.33333 36.6667 8.33333 36.6667C9.33333 36.6667 10 36 10 35V21.6667C10 20.6667 9.33333 20 8.33333 20ZM25 13.3333C24 13.3333 23.3333 14 23.3333 15V35C23.3333 36 24 36.6667 25 36.6667C26 36.6667 26.6667 36 26.6667 35V15C26.6667 14 26 13.3333 25 13.3333ZM33.3333 26.6667C32.3333 26.6667 31.6667 27.3333 31.6667 28.3333V35C31.6667 36 32.3333 36.6667 33.3333 36.6667C34.3333 36.6667 35 36 35 35V28.3333C35 27.3333 34.3333 26.6667 33.3333 26.6667Z" fill="black"/>
</svg>
