<svg width="40" height="40" viewBox="0 0 40 40" fill="none" xmlns="http://www.w3.org/2000/svg">
<path d="M36.1667 17.1667L21.1667 3.83331C20.5 3.33331 19.6667 3.33331 19 3.83331L4 17.1667C3.33334 17.8333 3.16667 18.8333 3.83333 19.5C4.5 20.1667 5.5 20.3333 6.16667 19.6667L6.66667 19V35C6.66667 36 7.33333 36.6667 8.33333 36.6667H31.6667C32.6667 36.6667 33.3333 36 33.3333 35V19L33.8333 19.5C34.5 20.1667 35.5 20 36.1667 19.3333C36.8333 18.8333 36.8333 17.6667 36.1667 17.1667ZM20 18.3333C22.5 18.3333 24.5 20.3333 24.5 22.8333C24.5 25.3333 22.5 27.3333 20 27.3333C17.5 27.3333 15.5 25.3333 15.5 22.8333C15.5 20.3333 17.5 18.3333 20 18.3333ZM11.6667 33.3333C11.6667 33.1667 11.6667 33.1667 11.8333 33C15.5 28.5 22.1667 27.6667 26.6667 31.3333C27.3333 31.8333 27.8333 32.3333 28.3333 33C28.3333 33 28.3333 33.1667 28.5 33.3333H11.6667Z" fill="#332317"/>
</svg>
